<svg width="512" height="512" viewBox="0 0 512 512" fill="none" xmlns="http://www.w3.org/2000/svg">
<path d="M108 400C114.627 400 120 394.627 120 388C120 381.373 114.627 376 108 376C101.373 376 96 381.373 96 388C96 394.627 101.373 400 108 400Z" fill="#2CC8A7"/>
<path d="M205.9 162.594L238.74 198.419L306.689 138.019C308.135 136.734 309.997 136.016 311.931 135.999C313.865 135.982 315.74 136.665 317.209 137.924L364.9 178.8L384 144.824V64H64V249.052L195.562 161.344C197.151 160.284 199.066 159.827 200.962 160.057C202.858 160.286 204.61 161.186 205.9 162.594V162.594ZM128 176C118.506 176 109.226 173.185 101.333 167.911C93.4391 162.636 87.2868 155.14 83.6538 146.369C80.0208 137.598 79.0702 127.947 80.9223 118.636C82.7744 109.325 87.346 100.772 94.0589 94.0589C100.772 87.346 109.325 82.7744 118.636 80.9223C127.947 79.0702 137.598 80.0208 146.369 83.6538C155.14 87.2868 162.636 93.4391 167.911 101.333C173.185 109.226 176 118.506 176 128C175.986 140.726 170.924 152.927 161.926 161.926C152.927 170.924 140.726 175.986 128 176V176Z" fill="#2CC8A7"/>
<path d="M64 470C64 472.652 65.0536 475.196 66.9289 477.071C68.8043 478.946 71.3478 480 74 480H374C375.313 480 376.614 479.741 377.827 479.239C379.04 478.736 380.142 478 381.071 477.071C382 476.142 382.736 475.04 383.239 473.827C383.741 472.614 384 471.313 384 470V448H64V470ZM200 456H248V472H200V456Z" fill="#2CC8A7"/>
<path d="M384 42C384 40.6868 383.741 39.3864 383.239 38.1732C382.736 36.9599 382 35.8575 381.071 34.9289C380.142 34.0003 379.04 33.2638 377.827 32.7612C376.614 32.2587 375.313 32 374 32H74C71.3478 32 68.8043 33.0536 66.9289 34.9289C65.0536 36.8043 64 39.3478 64 42V48H384V42Z" fill="#2CC8A7"/>
<path d="M128 160C145.673 160 160 145.673 160 128C160 110.327 145.673 96 128 96C110.327 96 96 110.327 96 128C96 145.673 110.327 160 128 160Z" fill="#2CC8A7"/>
<path d="M180 400C186.627 400 192 394.627 192 388C192 381.373 186.627 376 180 376C173.373 376 168 381.373 168 388C168 394.627 173.373 400 180 400Z" fill="#2CC8A7"/>
<path d="M297.667 394.575L268.036 414.626C266.806 415.459 265.367 415.932 263.883 415.994C262.398 416.055 260.926 415.702 259.631 414.973C258.336 414.245 257.269 413.171 256.551 411.87C255.832 410.57 255.49 409.095 255.562 407.611L257.301 371.876C257.361 370.636 257.708 369.426 258.317 368.344L285.764 319.531L278.791 315.61L294.475 287.718L301.448 291.638L356.9 193.021L312.1 154.621L249.554 210.221L293.9 258.594L282.1 269.406L198.731 178.459L64 268.281V432H384V242.76L300.157 391.87C299.548 392.953 298.696 393.879 297.667 394.575V394.575ZM88 296H200V312H88V296ZM200 328V344H184V328H200ZM168 328V344H152V328H168ZM88 328H104V344H88V328ZM108 416C102.462 416 97.0486 414.358 92.444 411.281C87.8395 408.204 84.2506 403.831 82.1314 398.715C80.0121 393.599 79.4576 387.969 80.538 382.537C81.6184 377.106 84.2851 372.117 88.201 368.201C92.1169 364.285 97.106 361.618 102.537 360.538C107.969 359.458 113.599 360.012 118.715 362.131C123.831 364.251 128.204 367.839 131.281 372.444C134.358 377.049 136 382.462 136 388C135.992 395.423 133.039 402.54 127.79 407.79C122.54 413.039 115.423 415.992 108 416V416ZM136 344H120V328H136V344ZM180 416C174.462 416 169.049 414.358 164.444 411.281C159.839 408.204 156.251 403.831 154.131 398.715C152.012 393.599 151.458 387.969 152.538 382.537C153.618 377.106 156.285 372.117 160.201 368.201C164.117 364.285 169.106 361.618 174.537 360.538C179.969 359.458 185.599 360.012 190.715 362.131C195.831 364.251 200.204 367.839 203.281 372.444C206.358 377.049 208 382.462 208 388C207.992 395.423 205.039 402.54 199.79 407.79C194.54 413.039 187.423 415.992 180 416V416Z" fill="#2CC8A7"/>
<path d="M273.189 374.54L272.32 392.407L287.136 382.382L423.444 139.964L409.498 132.122L273.189 374.54Z" fill="#2CC8A7"/>
<path d="M447.7 92.046C447.273 90.5223 446.404 89.1594 445.203 88.1296C444.001 87.0998 442.522 86.4494 440.951 86.2607C439.379 86.072 437.788 86.3534 436.377 87.0694C434.966 87.7854 433.798 88.9037 433.023 90.283L417.339 118.177L431.286 126.019L446.97 98.126C447.488 97.2113 447.819 96.2029 447.944 95.1592C448.07 94.1155 447.987 93.0574 447.7 92.046V92.046Z" fill="#2CC8A7"/>
</svg>
