<svg width="512" height="512" viewBox="0 0 512 512" fill="none" xmlns="http://www.w3.org/2000/svg">
<path d="M320 280C320 277.878 320.843 275.843 322.343 274.343C323.843 272.843 325.878 272 328 272H336V227.215L321.072 201.359C320.011 199.522 319.724 197.338 320.273 195.289C320.822 193.239 322.163 191.492 324 190.431L336 183.503V160H328C325.878 160 323.843 159.157 322.343 157.657C320.843 156.157 320 154.122 320 152V144H251.6L308.7 185.53C309.721 186.272 310.551 187.245 311.124 188.37C311.696 189.494 311.995 190.738 311.995 192C311.995 193.262 311.696 194.506 311.124 195.63C310.551 196.755 309.721 197.728 308.7 198.47L284.6 216L308.7 233.53C309.721 234.272 310.551 235.245 311.124 236.37C311.696 237.494 311.995 238.738 311.995 240C311.995 241.262 311.696 242.506 311.124 243.63C310.551 244.755 309.721 245.728 308.7 246.47L251.6 288H320V280Z" fill="#2CC8A7"/>
<path d="M224 288.29V288H224.4L290.4 240L271 225.892L220.705 262.47C219.338 263.464 217.691 264 216 264C214.309 264 212.662 263.464 211.295 262.47L161 225.892L141.6 240L216 294.108L224 288.29Z" fill="#2CC8A7"/>
<path d="M336 288H352V304H336V288Z" fill="#2CC8A7"/>
<path d="M338.919 200.269L352.776 192.269L364.776 213.053L350.919 221.053L338.919 200.269Z" fill="#2CC8A7"/>
<path d="M180.4 288L123.3 246.47C122.279 245.728 121.449 244.755 120.876 243.63C120.304 242.506 120.005 241.262 120.005 240C120.005 238.738 120.304 237.494 120.876 236.37C121.449 235.245 122.279 234.272 123.3 233.53L147.4 216L123.3 198.47C122.279 197.728 121.449 196.755 120.876 195.63C120.304 194.506 120.005 193.262 120.005 192C120.005 190.738 120.304 189.494 120.876 188.37C121.449 187.245 122.279 186.272 123.3 185.53L180.4 144H104V152C104 154.122 103.157 156.157 101.657 157.657C100.157 159.157 98.1217 160 96 160H88V272H96C98.1217 272 100.157 272.843 101.657 274.343C103.157 275.843 104 277.878 104 280V288H180.4Z" fill="#2CC8A7"/>
<path d="M335.8 451.031L328.826 448.707C321.373 446.2 314.646 441.91 309.23 436.209C303.814 430.509 299.873 423.571 297.75 416H214.25C212.128 423.57 208.188 430.508 202.773 436.208C197.358 441.908 190.632 446.199 183.18 448.707L176.205 451.031C173.815 451.826 171.735 453.353 170.262 455.397C168.79 457.44 167.998 459.896 168 462.415V464H344V462.415C344.002 459.897 343.212 457.441 341.74 455.398C340.268 453.354 338.189 451.826 335.8 451.031Z" fill="#2CC8A7"/>
<path d="M456.287 356.287L428.574 372.287C426.737 373.348 424.553 373.635 422.504 373.086C420.454 372.537 418.707 371.196 417.646 369.359L407.624 352H32V390C32 392.652 33.0536 395.196 34.9289 397.071C36.8043 398.946 39.3478 400 42 400H470C472.652 400 475.196 398.946 477.071 397.071C478.946 395.196 480 392.652 480 390V352H459.839C459.206 353.808 457.946 355.329 456.287 356.287V356.287ZM280 384H232V368H280V384Z" fill="#2CC8A7"/>
<path d="M72 128H88V144H72V128Z" fill="#2CC8A7"/>
<path d="M336 128H352V144H336V128Z" fill="#2CC8A7"/>
<path d="M72 288H88V304H72V288Z" fill="#2CC8A7"/>
<path d="M216 137.892L141.602 192L216 246.108L290.398 192L224.398 144H224V143.71L216 137.892Z" fill="#2CC8A7"/>
<path d="M32 336H398.387L368 283.369V312C368 314.122 367.157 316.157 365.657 317.657C364.157 319.157 362.122 320 360 320H328C325.878 320 323.843 319.157 322.343 317.657C320.843 316.157 320 314.122 320 312V304H229.6L220.7 310.47C219.333 311.464 217.686 312 215.995 312C214.304 312 212.657 311.464 211.29 310.47L202.4 304H104V312C104 314.122 103.157 316.157 101.657 317.657C100.157 319.157 98.1217 320 96 320H64C61.8783 320 59.8434 319.157 58.3431 317.657C56.8429 316.157 56 314.122 56 312V280C56 277.878 56.8429 275.843 58.3431 274.343C59.8434 272.843 61.8783 272 64 272H72V160H64C61.8783 160 59.8434 159.157 58.3431 157.657C56.8429 156.157 56 154.122 56 152V120C56 117.878 56.8429 115.843 58.3431 114.343C59.8434 112.843 61.8783 112 64 112H96C98.1217 112 100.157 112.843 101.657 114.343C103.157 115.843 104 117.878 104 120V128H202.4L211.3 121.53C212.667 120.536 214.314 120 216.005 120C217.696 120 219.343 120.536 220.71 121.53L229.61 128H320V120C320 117.878 320.843 115.843 322.343 114.343C323.843 112.843 325.878 112 328 112H360C362.122 112 364.157 112.843 365.657 114.343C367.157 115.843 368 117.878 368 120V152C368 154.122 367.157 156.157 365.657 157.657C364.157 159.157 362.122 160 360 160H352V174.273C353.829 173.315 355.958 173.101 357.941 173.676C359.924 174.251 361.608 175.571 362.641 177.359L382.641 212C383.047 212.703 383.345 213.464 383.522 214.256L384 215.083V130C384.006 125.228 385.904 120.653 389.278 117.278C392.653 113.904 397.228 112.006 402 112H438C442.772 112.006 447.347 113.904 450.722 117.278C454.096 120.653 455.994 125.228 456 130V302C455.996 305.724 454.838 309.356 452.686 312.396C450.535 315.436 447.495 317.735 443.984 318.978L453.812 336H480V96H32V336Z" fill="#2CC8A7"/>
<path d="M470 48H42C39.3478 48 36.8043 49.0536 34.9289 50.9289C33.0536 52.8043 32 55.3478 32 58V80H480V58C480 55.3478 478.946 52.8043 477.071 50.9289C475.196 49.0536 472.652 48 470 48V48ZM64 72H48V56H64V72ZM96 72H80V56H96V72ZM128 72H112V56H128V72ZM432 72H416V56H432V72ZM464 72H448V56H464V72Z" fill="#2CC8A7"/>
<path d="M440 130C440 129.47 439.789 128.961 439.414 128.586C439.039 128.211 438.53 128 438 128H402C401.47 128 400.961 128.211 400.586 128.586C400.211 128.961 400 129.47 400 130V152H440V130Z" fill="#2CC8A7"/>
<path d="M361.52 272.145L352 255.656V272H360C360.51 272 361.019 272.048 361.52 272.145V272.145Z" fill="#2CC8A7"/>
<path d="M359.492 236.646L373.349 228.646L441.349 346.422L427.492 354.422L359.492 236.646Z" fill="#2CC8A7"/>
<path d="M400 242.8L435.336 304H438C438.53 304 439.039 303.789 439.414 303.414C439.789 303.039 440 302.53 440 302V168H400V242.8Z" fill="#2CC8A7"/>
</svg>
