<svg width="512" height="512" viewBox="0 0 512 512" fill="none" xmlns="http://www.w3.org/2000/svg">
<path d="M80 288H96V304H80V288Z" fill="#2CC8A7"/>
<path d="M224.572 261.029C225.166 259.544 226.191 258.272 227.515 257.375C228.839 256.479 230.401 256 232 256H280C281.599 256 283.161 256.479 284.485 257.375C285.809 258.272 286.834 259.544 287.428 261.029L301.417 296.005H329.906L328.014 264.479C327.974 263.812 328.018 263.142 328.145 262.486L282.387 136H229.619L171.9 296.005H210.583L224.572 261.029ZM232.308 221.802L248.308 165.802C248.786 164.131 249.795 162.66 251.183 161.613C252.571 160.567 254.262 160 256 160C257.738 160 259.429 160.567 260.817 161.613C262.205 162.66 263.214 164.131 263.692 165.802L279.692 221.802C280.032 222.993 280.091 224.246 279.865 225.463C279.638 226.681 279.132 227.829 278.387 228.817C277.641 229.806 276.676 230.608 275.568 231.16C274.46 231.713 273.238 232 272 232H240C238.762 232 237.54 231.713 236.431 231.16C235.323 230.608 234.358 229.806 233.612 228.817C232.867 227.828 232.361 226.68 232.134 225.462C231.908 224.244 231.967 222.991 232.308 221.8V221.802Z" fill="#2CC8A7"/>
<path d="M256 197.121L250.606 216H261.394L256 197.121Z" fill="#2CC8A7"/>
<path d="M400 296.67V280C400 277.878 400.843 275.843 402.343 274.343C403.843 272.843 405.878 272 408 272H416V160H408C405.878 160 403.843 159.157 402.343 157.657C400.843 156.157 400 154.122 400 152V144H302.3L344.2 259.826L400 296.67Z" fill="#2CC8A7"/>
<path d="M80 128H96V144H80V128Z" fill="#2CC8A7"/>
<path d="M416 288H432V304H416V288Z" fill="#2CC8A7"/>
<path d="M335.8 451.031L328.827 448.707C321.374 446.2 314.647 441.91 309.231 436.209C303.814 430.509 299.873 423.571 297.75 416H214.25C212.127 423.57 208.187 430.508 202.772 436.208C197.357 441.908 190.631 446.199 183.179 448.707L176.205 451.031C173.814 451.825 171.735 453.353 170.262 455.396C168.789 457.44 167.998 459.896 168 462.415V464H344V462.415C344.003 459.897 343.212 457.441 341.74 455.398C340.268 453.354 338.19 451.826 335.8 451.031V451.031Z" fill="#2CC8A7"/>
<path d="M348.417 376.446C347.218 377.798 345.597 378.705 343.818 379.018C342.039 379.332 340.205 379.033 338.617 378.172C337.397 377.481 336.373 376.492 335.64 375.297C334.908 374.101 334.491 372.739 334.43 371.339L333.267 352H32V390C32 392.652 33.0536 395.196 34.9289 397.071C36.8043 398.946 39.3478 400 42 400H470C472.652 400 475.196 398.946 477.071 397.071C478.946 395.196 480 392.652 480 390V352H370.094L348.417 376.446ZM280 384H232V368H280V384Z" fill="#2CC8A7"/>
<path d="M157.778 288L209.724 144H112V152C112 154.122 111.157 156.157 109.657 157.657C108.157 159.157 106.122 160 104 160H96V272H104C106.122 272 108.157 272.843 109.657 274.343C111.157 275.843 112 277.878 112 280V288H157.778Z" fill="#2CC8A7"/>
<path d="M470 48H42C39.3478 48 36.8043 49.0536 34.9289 50.9289C33.0536 52.8043 32 55.3478 32 58V80H480V58C480 55.3478 478.946 52.8043 477.071 50.9289C475.196 49.0536 472.652 48 470 48V48ZM64 72H48V56H64V72ZM96 72H80V56H96V72ZM128 72H112V56H128V72ZM432 72H416V56H432V72ZM464 72H448V56H464V72Z" fill="#2CC8A7"/>
<path d="M416 128H432V144H416V128Z" fill="#2CC8A7"/>
<path d="M32 336H332.307L330.867 312H296C294.401 312 292.839 311.521 291.515 310.625C290.191 309.728 289.166 308.456 288.572 306.971L274.583 272H237.417L223.428 306.976C222.834 308.461 221.809 309.733 220.485 310.63C219.161 311.526 217.599 312.005 216 312.005H160.509C158.387 312.005 156.352 311.162 154.852 309.662C153.352 308.162 152.509 306.127 152.509 304.005H112V312.005C112 314.127 111.157 316.162 109.657 317.662C108.157 319.162 106.122 320.005 104 320.005H72C69.8783 320.005 67.8434 319.162 66.3431 317.662C64.8429 316.162 64 314.127 64 312.005V280C64 277.878 64.8429 275.843 66.3431 274.343C67.8434 272.843 69.8783 272 72 272H80V160H72C69.8783 160 67.8434 159.157 66.3431 157.657C64.8429 156.157 64 154.122 64 152V120C64 117.878 64.8429 115.843 66.3431 114.343C67.8434 112.843 69.8783 112 72 112H104C106.122 112 108.157 112.843 109.657 114.343C111.157 115.843 112 117.878 112 120V128H215.5L216.48 125.285C217.038 123.738 218.06 122.4 219.405 121.455C220.751 120.509 222.355 120.001 224 120H288C289.644 120 291.249 120.507 292.595 121.451C293.941 122.395 294.964 123.732 295.523 125.278L296.508 128H400V120C400 117.878 400.843 115.843 402.343 114.343C403.843 112.843 405.878 112 408 112H440C442.122 112 444.157 112.843 445.657 114.343C447.157 115.843 448 117.878 448 120V152C448 154.122 447.157 156.157 445.657 157.657C444.157 159.157 442.122 160 440 160H432V272H440C442.122 272 444.157 272.843 445.657 274.343C447.157 275.843 448 277.878 448 280V312C448 314.122 447.157 316.157 445.657 317.657C444.157 319.157 442.122 320 440 320H432.928C433.393 321.091 433.61 322.272 433.563 323.457C433.516 324.643 433.205 325.803 432.654 326.853C432.104 327.904 431.326 328.819 430.378 329.532C429.43 330.245 428.335 330.738 427.173 330.976L402.622 336H480V96H32V336Z" fill="#2CC8A7"/>
<path d="M344.944 279.492L349.259 351.38L370.014 327.98C371.162 326.685 372.7 325.797 374.396 325.45L404.631 319.262C403.512 318.739 402.529 317.965 401.758 317L344.944 279.492Z" fill="#2CC8A7"/>
</svg>
