<svg width="720" height="720" viewBox="0 0 720 720" fill="none" xmlns="http://www.w3.org/2000/svg">
<circle cx="360" cy="360" r="355" stroke="#2CC8A7" stroke-width="10"/>
<path d="M358.453 419.055H281.402L266.754 463H220.025L299.42 249.719H340.143L419.977 463H373.248L358.453 419.055ZM293.268 383.459H346.588L319.781 303.625L293.268 383.459ZM481.793 463H439.312V304.504H481.793V463ZM436.822 263.488C436.822 257.141 438.922 251.916 443.121 247.814C447.418 243.713 453.229 241.662 460.553 241.662C467.779 241.662 473.541 243.713 477.838 247.814C482.135 251.916 484.283 257.141 484.283 263.488C484.283 269.934 482.086 275.207 477.691 279.309C473.395 283.41 467.682 285.461 460.553 285.461C453.424 285.461 447.662 283.41 443.268 279.309C438.971 275.207 436.822 269.934 436.822 263.488Z" fill="#2CC8A7"/>
</svg>
