<svg width="720" height="720" viewBox="0 0 720 720" fill="none" xmlns="http://www.w3.org/2000/svg">
<path d="M257.391 496V211.625H357C391.505 211.625 417.677 218.266 435.516 231.547C453.354 244.698 462.273 264.034 462.273 289.555C462.273 303.487 458.693 315.792 451.531 326.469C444.37 337.016 434.409 344.763 421.648 349.711C436.232 353.357 447.69 360.714 456.023 371.781C464.487 382.849 468.719 396.391 468.719 412.406C468.719 439.75 459.995 460.453 442.547 474.516C425.099 488.578 400.229 495.74 367.938 496H257.391ZM315.984 372.172V448.93H366.18C379.982 448.93 390.724 445.674 398.406 439.164C406.219 432.523 410.125 423.409 410.125 411.82C410.125 385.779 396.648 372.562 369.695 372.172H315.984ZM315.984 330.766H359.344C388.901 330.245 403.68 318.461 403.68 295.414C403.68 282.523 399.904 273.279 392.352 267.68C384.93 261.951 373.146 259.086 357 259.086H315.984V330.766Z" fill="#2CC8A7"/>
<circle cx="360" cy="360" r="355" stroke="#2CC8A7" stroke-width="10"/>
</svg>
