<svg width="720" height="720" viewBox="0 0 720 720" fill="none" xmlns="http://www.w3.org/2000/svg">
<circle cx="360" cy="360" r="355" stroke="#2CC8A7" stroke-width="10"/>
<path d="M510 243.711L486.43 517.048C451.5 544.149 407.638 560.278 360 560.278C312.362 560.278 268.5 544.149 233.57 517.048L210 243.711H510Z" fill="#2CC8A7"/>
<path d="M359.997 269.41V554.872L458.608 527.033L480.606 269.41H359.997Z" fill="#2CC8A7"/>
<path d="M447.129 381.067H376.009L450.326 343.245L453.537 305.224H266.458L269.732 343.988H344.829L272.774 380.016L276.127 419.726H404.66L400.447 467.021L359.998 477.976L317.863 466.178L316.809 436.684H277.559L282.469 494.83L359.998 516.74L437.525 494.83L447.132 381.06L447.129 381.067Z" fill="white"/>
<path d="M286.894 201.573V174.606H325.657V160H272.849V216.179H325.657V201.573H286.894Z" fill="#2CC8A7"/>
<path d="M348.34 181.98V175.238H386.894V174.606V160H334.084V194.831H371.935V201.573H334.084V216.179H386.894V201.573V181.98H348.34Z" fill="#2CC8A7"/>
<path d="M408.592 181.98V175.238H447.146V174.606V160H394.337V194.831H432.188V201.573H394.337V216.179H447.146V201.573V181.98H408.592Z" fill="#2CC8A7"/>
</svg>
