<svg width="720" height="720" viewBox="0 0 720 720" fill="none" xmlns="http://www.w3.org/2000/svg">
<path d="M297.488 547C331.981 547 359.975 519 359.975 484.5V422H297.488C262.994 422 235 450 235 484.5C235 519 262.994 547 297.488 547Z" fill="#2CC8A7"/>
<path d="M235 359.5C235 325 262.994 297 297.488 297H359.975V422H297.488C262.994 422 235 394 235 359.5Z" fill="#2CC8A7"/>
<path d="M235 234.5C235 200 262.994 172 297.488 172H359.975V297H297.488C262.994 297 235 269 235 234.5Z" fill="#2CC8A7"/>
<path d="M359.975 172H422.462C456.956 172 484.95 200 484.95 234.5C484.95 269 456.956 297 422.462 297H359.975V172Z" fill="#2CC8A7"/>
<path d="M484.95 359.5C484.95 394 456.956 422 422.462 422C387.969 422 359.975 394 359.975 359.5C359.975 325 387.969 297 422.462 297C456.956 297 484.95 325 484.95 359.5Z" fill="#2CC8A7"/>
<circle cx="360" cy="360" r="355" stroke="#2CC8A7" stroke-width="10"/>
</svg>
