<svg width="720" height="720" viewBox="0 0 720 720" fill="none" xmlns="http://www.w3.org/2000/svg">
<circle cx="360" cy="360" r="355" stroke="#2CC8A7" stroke-width="10"/>
<path d="M510 243.053L486.36 517.198C451.327 544.38 407.335 560.556 359.556 560.556C312.209 560.556 268.58 544.667 233.699 517.925L210 243.053H510Z" fill="#2CC8A7"/>
<path d="M359.998 268.755V554.221L458.611 526.382L480.608 268.755H359.998Z" fill="#2CC8A7"/>
<path d="M266.458 304.571L276.128 419.078H404.66L400.454 466.378L360 477.333L317.867 465.53L316.809 436.04H277.562L282.475 494.181L360 516.091L437.525 494.181L447.133 380.417H311.775L308.415 343.339L308.415 343.337L450.333 342.594L453.542 304.571H266.458Z" fill="white"/>
<path d="M274.753 160V179.673H255.957V160H238.471V216.392H255.957V198.032H274.753V216.392H292.24V160H274.753Z" fill="#2CC8A7"/>
<path d="M354.315 160H300.545V179.673H318.031V216.831H336.829V179.673H354.315V160Z" fill="#2CC8A7"/>
<path d="M454.424 198.906V160.438H435.626V198.906V216.83H454.424H481.526V198.906H454.424Z" fill="#2CC8A7"/>
<path d="M407.21 160.438L394.097 180.546L380.982 160.438H362.185V216.83H380.982V188.852L394.097 208.962L407.21 188.852V216.83H426.009V160.438H407.21Z" fill="#2CC8A7"/>
</svg>
