<svg width="720" height="720" viewBox="0 0 720 720" fill="none" xmlns="http://www.w3.org/2000/svg">
<circle cx="360" cy="360" r="355" stroke="#2CC8A7" stroke-width="10"/>
<path d="M289.029 249.719H332.975V397.375C332.975 410.949 329.947 422.961 323.893 433.41C317.936 443.762 309.488 451.77 298.551 457.434C287.613 463.098 275.26 465.93 261.49 465.93C238.932 465.93 221.354 460.217 208.756 448.791C196.158 437.268 189.859 421.008 189.859 400.012H234.098C234.098 410.461 236.295 418.176 240.689 423.156C245.084 428.137 252.018 430.627 261.49 430.627C269.889 430.627 276.578 427.746 281.559 421.984C286.539 416.223 289.029 408.02 289.029 397.375V249.719ZM481.217 407.043C481.217 398.742 478.287 392.395 472.428 388C466.568 383.508 456.021 378.82 440.787 373.938C425.553 368.957 413.492 364.074 404.605 359.289C380.387 346.203 368.277 328.576 368.277 306.408C368.277 294.885 371.5 284.631 377.945 275.646C384.488 266.564 393.814 259.484 405.924 254.406C418.131 249.328 431.803 246.789 446.939 246.789C462.174 246.789 475.748 249.572 487.662 255.139C499.576 260.607 508.805 268.371 515.348 278.43C521.988 288.488 525.309 299.914 525.309 312.707H481.363C481.363 302.941 478.287 295.373 472.135 290.002C465.982 284.533 457.34 281.799 446.207 281.799C435.465 281.799 427.115 284.094 421.158 288.684C415.201 293.176 412.223 299.133 412.223 306.555C412.223 313.488 415.689 319.299 422.623 323.986C429.654 328.674 439.957 333.068 453.531 337.17C478.531 344.689 496.744 354.016 508.17 365.148C519.596 376.281 525.309 390.148 525.309 406.75C525.309 425.207 518.326 439.709 504.361 450.256C490.396 460.705 471.598 465.93 447.965 465.93C431.559 465.93 416.617 462.951 403.141 456.994C389.664 450.939 379.361 442.688 372.232 432.238C365.201 421.789 361.686 409.68 361.686 395.91H405.777C405.777 419.445 419.84 431.213 447.965 431.213C458.414 431.213 466.568 429.113 472.428 424.914C478.287 420.617 481.217 414.66 481.217 407.043Z" fill="#2CC8A7"/>
</svg>
