<svg width="720" height="720" viewBox="0 0 720 720" fill="none" xmlns="http://www.w3.org/2000/svg">
<circle cx="360" cy="360" r="355" stroke="#2CC8A7" stroke-width="10"/>
<path d="M275.042 381.995C275.042 403.968 270.032 421.59 260.013 434.861C250.081 448.045 236.634 454.637 219.671 454.637C205.257 454.637 193.611 449.627 184.734 439.607V506.844H146.634V309.354H181.966L183.284 323.328C192.513 312.254 204.554 306.717 219.407 306.717C236.985 306.717 250.652 313.221 260.408 326.229C270.164 339.236 275.042 357.166 275.042 380.018V381.995ZM236.941 379.227C236.941 365.955 234.568 355.716 229.822 348.509C225.164 341.302 218.353 337.698 209.388 337.698C197.435 337.698 189.217 342.269 184.734 351.409V409.812C189.393 419.217 197.698 423.919 209.651 423.919C227.845 423.919 236.941 409.021 236.941 379.227ZM335.95 324.91C346.058 312.781 358.758 306.717 374.051 306.717C404.988 306.717 420.677 324.69 421.116 360.638V452H383.016V361.692C383.016 353.519 381.258 347.498 377.742 343.631C374.227 339.676 368.382 337.698 360.208 337.698C349.046 337.698 340.96 342.005 335.95 350.618V452H297.85V249.5H335.95V324.91ZM578.265 381.995C578.265 403.968 573.255 421.59 563.235 434.861C553.304 448.045 539.856 454.637 522.894 454.637C508.479 454.637 496.834 449.627 487.957 439.607V506.844H449.856V309.354H485.188L486.507 323.328C495.735 312.254 507.776 306.717 522.63 306.717C540.208 306.717 553.875 313.221 563.631 326.229C573.387 339.236 578.265 357.166 578.265 380.018V381.995ZM540.164 379.227C540.164 365.955 537.791 355.716 533.045 348.509C528.387 341.302 521.575 337.698 512.61 337.698C500.657 337.698 492.439 342.269 487.957 351.409V409.812C492.615 419.217 500.921 423.919 512.874 423.919C531.067 423.919 540.164 409.021 540.164 379.227Z" fill="#2CC8A7"/>
</svg>
