<svg width="720" height="720" viewBox="0 0 720 720" fill="none" xmlns="http://www.w3.org/2000/svg">
<circle cx="360" cy="360" r="355" stroke="#2CC8A7" stroke-width="10"/>
<path d="M270.988 387.854V463H227.043V249.719H310.246C326.262 249.719 340.324 252.648 352.434 258.508C364.641 264.367 374.016 272.717 380.559 283.557C387.102 294.299 390.373 306.555 390.373 320.324C390.373 341.223 383.195 357.727 368.84 369.836C354.582 381.848 334.807 387.854 309.514 387.854H270.988ZM270.988 352.258H310.246C321.867 352.258 330.705 349.523 336.76 344.055C342.912 338.586 345.988 330.773 345.988 320.617C345.988 310.168 342.912 301.721 336.76 295.275C330.607 288.83 322.111 285.51 311.271 285.314H270.988V352.258ZM506.975 344.201C501.213 343.42 496.135 343.029 491.74 343.029C475.725 343.029 465.227 348.449 460.246 359.289V463H417.912V304.504H457.902L459.074 323.4C467.57 308.85 479.338 301.574 494.377 301.574C499.064 301.574 503.459 302.209 507.561 303.479L506.975 344.201Z" fill="#2CC8A7"/>
</svg>
