<svg width="720" height="720" viewBox="0 0 720 720" fill="none" xmlns="http://www.w3.org/2000/svg">
<circle cx="360" cy="360" r="355" stroke="#2CC8A7" stroke-width="10"/>
<path d="M248.988 387.854V463H205.043V249.719H288.246C304.262 249.719 318.324 252.648 330.434 258.508C342.641 264.367 352.016 272.717 358.559 283.557C365.102 294.299 368.373 306.555 368.373 320.324C368.373 341.223 361.195 357.727 346.84 369.836C332.582 381.848 312.807 387.854 287.514 387.854H248.988ZM248.988 352.258H288.246C299.867 352.258 308.705 349.523 314.76 344.055C320.912 338.586 323.988 330.773 323.988 320.617C323.988 310.168 320.912 301.721 314.76 295.275C308.607 288.83 300.111 285.51 289.271 285.314H248.988V352.258ZM481.752 419.201C481.752 414.025 479.164 409.973 473.988 407.043C468.91 404.016 460.707 401.33 449.379 398.986C411.684 391.076 392.836 375.061 392.836 350.939C392.836 336.877 398.646 325.158 410.268 315.783C421.986 306.311 437.27 301.574 456.117 301.574C476.234 301.574 492.299 306.311 504.311 315.783C516.42 325.256 522.475 337.561 522.475 352.697H480.141C480.141 346.643 478.188 341.662 474.281 337.756C470.375 333.752 464.271 331.75 455.971 331.75C448.842 331.75 443.324 333.361 439.418 336.584C435.512 339.807 433.559 343.908 433.559 348.889C433.559 353.576 435.756 357.385 440.15 360.314C444.643 363.146 452.162 365.637 462.709 367.785C473.256 369.836 482.143 372.18 489.369 374.816C511.732 383.02 522.914 397.229 522.914 417.443C522.914 431.896 516.713 443.615 504.311 452.6C491.908 461.486 475.893 465.93 456.264 465.93C442.982 465.93 431.166 463.586 420.814 458.898C410.561 454.113 402.504 447.619 396.645 439.416C390.785 431.115 387.855 422.18 387.855 412.609H427.992C428.383 420.129 431.166 425.891 436.342 429.895C441.518 433.898 448.451 435.9 457.143 435.9C465.248 435.9 471.352 434.387 475.453 431.359C479.652 428.234 481.752 424.182 481.752 419.201Z" fill="#2CC8A7"/>
</svg>
