<svg id="Capa_1" enable-background="new 0 0 512 512" height="512" viewBox="0 0 512 512" width="512" xmlns="http://www.w3.org/2000/svg"><g><g><path clip-rule="evenodd" d="m10 115.22h491.972l.028-83.167c0-12.132-9.957-22.053-22.099-22.053h-447.83c-12.142 0-22.071 9.921-22.071 22.053z" fill="#ff7d95" fill-rule="evenodd"/></g><g><path clip-rule="evenodd" d="m10 479.919c0 12.132 9.929 22.081 22.071 22.081h447.83c12.142 0 22.099-9.949 22.099-22.081l-.028-364.699h-491.972zm41.929-171.323v-151.396h408.113v151.395h-408.113zm301.475 151.395v-101.818h106.638v101.819h-106.638zm-150.723-101.818h106.638v101.819h-106.638zm-150.752 0h106.638v101.819h-106.638z" fill="#fff" fill-rule="evenodd"/></g><g><path clip-rule="evenodd" d="m51.929 308.596 204.057-75.684-204.057-75.712z" fill="#98eaf9" fill-rule="evenodd"/></g><g><path clip-rule="evenodd" d="m51.929 157.2 204.057 75.712 204.057-75.712z" fill="#98eaf9" fill-rule="evenodd"/></g><g><path clip-rule="evenodd" d="m255.986 232.912 204.057 75.684v-151.396z" fill="#98eaf9" fill-rule="evenodd"/></g><g><path clip-rule="evenodd" d="m51.929 308.596h408.114l-204.057-75.684z" fill="#98eaf9" fill-rule="evenodd"/></g><g><path clip-rule="evenodd" d="m51.929 459.991 106.638-101.818h-106.638z" fill="#cbf4fb" fill-rule="evenodd"/></g><g><path clip-rule="evenodd" d="m51.929 459.991h106.638v-101.818z" fill="#cbf4fb" fill-rule="evenodd"/></g><g><path clip-rule="evenodd" d="m202.681 459.991 106.638-101.818h-106.638z" fill="#cbf4fb" fill-rule="evenodd"/></g><g><path clip-rule="evenodd" d="m202.681 459.991h106.638v-101.818z" fill="#cbf4fb" fill-rule="evenodd"/></g><g><path clip-rule="evenodd" d="m353.404 459.991 106.639-101.818h-106.639z" fill="#cbf4fb" fill-rule="evenodd"/></g><g><path clip-rule="evenodd" d="m353.404 459.991h106.639v-101.818z" fill="#cbf4fb" fill-rule="evenodd"/></g><path d="m469.773 310.87c.173-.741.27-1.513.27-2.275v-151.395c0-5.431-4.564-10-10-10h-408.114c-5.443 0-10 4.568-10 10v151.396c0 5.468 4.598 10.03 10.068 10h407.979c4.624.025 8.739-3.234 9.797-7.726zm-407.844-139.294 165.305 61.322-165.305 61.322zm45.709-4.376h296.696l-148.348 55.032zm148.348 76.364 148.348 55.032h-296.696zm28.753-10.666 165.304-61.322v122.644z"/><g><path d="m41.973 460.871c.442 5.083 4.844 9.121 9.956 9.121h106.639c5.522 0 10-4.478 10-10v-101.819c0-5.438-4.565-10-10-10h-106.639c-5.522 0-10 4.478-10 10v101.818c0 .287.019.594.044.88zm34.909-10.88 71.685-68.445v68.445zm56.732-81.818-71.685 68.445v-68.445z"/><path d="m192.725 460.871c.442 5.083 4.844 9.121 9.956 9.121h106.639c5.522 0 10-4.478 10-10v-101.819c0-5.438-4.565-10-10-10h-106.639c-5.522 0-10 4.478-10 10v101.818c0 .287.019.594.044.88zm34.909-10.88 71.685-68.445v68.445zm56.732-81.818-71.685 68.445v-68.445z"/><path d="m343.449 460.871c.442 5.083 4.844 9.121 9.956 9.121h106.639c5.522 0 10-4.478 10-10v-101.819c0-5.438-4.565-10-10-10h-106.64c-5.522 0-10 4.478-10 10v101.818c0 .287.02.594.045.88zm34.909-10.88 71.685-68.445v68.445zm56.731-81.818-71.685 68.445v-68.445z"/><path d="m397.73 62.61c0-5.522-4.478-10-10-10h-.057c-5.522 0-9.972 4.478-9.972 10s4.506 10 10.028 10 10.001-4.477 10.001-10z"/><path d="m451.716 62.61c0-5.522-4.478-10-10-10h-.057c-5.522 0-9.972 4.478-9.972 10s4.506 10 10.028 10 10.001-4.477 10.001-10z"/><path d="m343.773 62.61c0-5.522-4.478-10-10-10h-.057c-5.522 0-9.972 4.478-9.972 10s4.506 10 10.028 10 10.001-4.477 10.001-10z"/><path d="m60.283 62.61c0 5.522 4.478 10 10 10h150.241c5.522 0 10-4.478 10-10s-4.478-10-10-10h-150.241c-5.522 0-10 4.478-10 10z"/><path d="m479.9 0h-312.907c-5.522 0-10 4.478-10 10s4.478 10 10 10h312.907c6.672 0 12.1 5.407 12.1 12.053v73.167h-472v-73.167c0-6.646 5.415-12.053 12.071-12.053h45.049c5.522 0 10-4.478 10-10s-4.478-10-10-10h-45.049c-17.684 0-32.071 14.379-32.071 32.053v447.866c0 17.689 14.387 32.081 32.071 32.081h447.829c17.7 0 32.1-14.392 32.1-32.081v-447.866c0-17.674-14.399-32.053-32.1-32.053zm12.1 479.919c0 6.661-5.428 12.081-12.1 12.081h-447.829c-6.656 0-12.071-5.42-12.071-12.081v-354.699h472z"/><path d="m122.057 20h.057c5.522 0 9.972-4.478 9.972-10s-4.506-10-10.028-10-10 4.478-10 10 4.476 10 9.999 10z"/></g></g></svg>