<svg width="720" height="720" viewBox="0 0 720 720" fill="none" xmlns="http://www.w3.org/2000/svg">
<circle cx="360" cy="360" r="355" stroke="#2CC8A7" stroke-width="10"/>
<path d="M443.045 246.686C443.045 243.45 440.421 240.826 437.185 240.826H437.152C433.917 240.826 431.309 243.45 431.309 246.686C431.309 249.921 433.949 252.545 437.185 252.545C440.42 252.545 443.045 249.922 443.045 246.686Z" fill="#2CC8A7"/>
<path d="M474.678 246.686C474.678 243.45 472.054 240.826 468.818 240.826H468.785C465.549 240.826 462.942 243.45 462.942 246.686C462.942 249.921 465.582 252.545 468.818 252.545C472.053 252.545 474.678 249.922 474.678 246.686Z" fill="#2CC8A7"/>
<path d="M411.43 246.686C411.43 243.45 408.806 240.826 405.57 240.826H405.537C402.302 240.826 399.694 243.45 399.694 246.686C399.694 249.921 402.334 252.545 405.57 252.545C408.805 252.545 411.43 249.922 411.43 246.686Z" fill="#2CC8A7"/>
<path d="M245.322 246.686C245.322 249.921 247.946 252.545 251.181 252.545H339.213C342.449 252.545 345.073 249.921 345.073 246.686C345.073 243.45 342.449 240.826 339.213 240.826H251.181C247.946 240.826 245.322 243.45 245.322 246.686Z" fill="#2CC8A7"/>
<path d="M491.191 210H307.847C304.612 210 301.988 212.624 301.988 215.859C301.988 219.095 304.612 221.719 307.847 221.719H491.191C495.101 221.719 498.281 224.887 498.281 228.781V271.652H221.719V228.781C221.719 224.887 224.892 221.719 228.792 221.719H255.188C258.423 221.719 261.047 219.095 261.047 215.859C261.047 212.624 258.423 210 255.188 210H228.792C218.43 210 210 218.425 210 228.781V491.203C210 501.567 218.43 510 228.792 510H491.191C501.562 510 510 501.567 510 491.203V228.781C510 218.425 501.563 210 491.191 210ZM491.191 498.281H228.792C224.892 498.281 221.719 495.105 221.719 491.203V283.371H498.281V491.203C498.281 495.105 495.101 498.281 491.191 498.281Z" fill="#2CC8A7"/>
<path d="M485.391 301.625C485.144 298.636 482.561 296.25 479.556 296.25H240.427C237.238 296.25 234.568 298.927 234.568 302.109V390.818C234.568 394.022 237.262 396.695 240.467 396.677H479.517C482.721 396.695 485.416 394.02 485.416 390.818V302.109C485.416 301.949 485.405 301.784 485.391 301.625ZM246.286 310.533L343.145 346.464L246.286 382.395V310.533ZM273.069 307.969H446.914L359.992 340.214L273.069 307.969ZM359.992 352.713L446.914 384.959H273.069L359.992 352.713ZM376.839 346.464L473.697 310.533V382.395L376.839 346.464Z" fill="#2CC8A7"/>
<path d="M308.744 419.352C308.485 416.372 305.9 414.007 302.91 414.007H240.427C237.191 414.007 234.568 416.631 234.568 419.867V479.526C234.568 482.71 237.237 485.385 240.427 485.385H302.911C306.146 485.385 308.77 482.761 308.77 479.526V419.867C308.77 419.699 308.758 419.519 308.744 419.352ZM288.289 425.727L246.286 465.831V425.727H288.289ZM255.048 473.667L297.051 433.562V473.667H255.048Z" fill="#2CC8A7"/>
<path d="M397.075 419.352C396.816 416.372 394.231 414.007 391.241 414.007H328.758C325.523 414.007 322.899 416.631 322.899 419.867V479.526C322.899 482.71 325.568 485.385 328.758 485.385H391.242C394.477 485.385 397.101 482.761 397.101 479.526V419.867C397.101 419.699 397.09 419.519 397.075 419.352ZM376.62 425.727L334.617 465.831V425.727H376.62ZM343.379 473.667L385.382 433.562V473.667H343.379Z" fill="#2CC8A7"/>
<path d="M485.39 419.352C485.131 416.372 482.546 414.007 479.556 414.007H417.073C413.837 414.007 411.213 416.631 411.213 419.867V479.526C411.213 482.71 413.882 485.385 417.073 485.385H479.556C482.792 485.385 485.416 482.761 485.416 479.526V419.867C485.416 419.699 485.405 419.519 485.39 419.352ZM464.935 425.727L422.932 465.831V425.727H464.935ZM431.694 473.667L473.697 433.562V473.667H431.694Z" fill="#2CC8A7"/>
<path d="M281.518 221.719H281.551C284.787 221.719 287.394 219.095 287.394 215.859C287.394 212.624 284.754 210 281.518 210C278.283 210 275.659 212.624 275.659 215.859C275.659 219.095 278.282 221.719 281.518 221.719Z" fill="#2CC8A7"/>
</svg>
