<svg width="720" height="720" viewBox="0 0 720 720" fill="none" xmlns="http://www.w3.org/2000/svg">
<circle cx="360" cy="360" r="355" stroke="#2CC8A7" stroke-width="10"/>
<path d="M262.361 323.254L302.352 249.719H352.889L290.779 355.48L354.5 463H303.377L262.361 388.293L221.346 463H170.223L233.943 355.48L171.834 249.719H222.371L262.361 323.254ZM376.766 463V249.719H442.391C461.141 249.719 477.889 253.967 492.635 262.463C507.479 270.861 519.051 282.873 527.352 298.498C535.652 314.025 539.803 331.701 539.803 351.525V361.34C539.803 381.164 535.701 398.791 527.498 414.221C519.393 429.65 507.918 441.613 493.074 450.109C478.23 458.605 461.482 462.902 442.83 463H376.766ZM420.711 285.314V427.697H441.951C459.139 427.697 472.273 422.082 481.355 410.852C490.438 399.621 495.076 383.557 495.271 362.658V351.379C495.271 329.699 490.779 313.293 481.795 302.16C472.811 290.93 459.676 285.314 442.391 285.314H420.711Z" fill="#2CC8A7"/>
</svg>
